<svg xmlns="http://www.w3.org/2000/svg" width="19.004" height="19" viewBox="0 0 19.004 19">
  <g id="cloud-computing" transform="translate(-0.001 -0.056)">
    <g id="Сгруппировать_7" data-name="Сгруппировать 7" transform="translate(0.001 0.056)">
      <g id="Сгруппировать_6" data-name="Сгруппировать 6" transform="translate(0 0)">
        <path id="Контур_404" data-name="Контур 404" d="M17.562,6.442a5.284,5.284,0,0,0,.09-.963A5.43,5.43,0,0,0,7.116,3.635,2.715,2.715,0,0,0,3.472,5.524a4.073,4.073,0,0,0,.6,8.1H7.47a.679.679,0,1,0,0-1.358H4.076a2.715,2.715,0,0,1,0-5.43.679.679,0,0,0,.679-.679,1.358,1.358,0,0,1,2.308-.967.679.679,0,0,0,1.146-.375,4.069,4.069,0,0,1,8.027,1.334q-.033.2-.085.393a.679.679,0,0,0,.28.747,2.715,2.715,0,0,1-1.495,4.978H12.9a.679.679,0,0,0,0,1.358h2.036a4.073,4.073,0,0,0,2.626-7.183Z" transform="translate(-0.001 -0.056)" fill="#2755a2"/>
      </g>
    </g>
    <g id="Сгруппировать_9" data-name="Сгруппировать 9" transform="translate(6.12 6.158)">
      <g id="Сгруппировать_8" data-name="Сгруппировать 8">
        <path id="Контур_405" data-name="Контур 405" d="M161.788,161.835a.679.679,0,0,0-.943,0l-2.237,2.235v-9.9a.679.679,0,0,0-1.358,0v9.9l-2.235-2.235a.679.679,0,0,0-.96.96l3.394,3.394a.679.679,0,0,0,.96,0h0L161.8,162.8A.679.679,0,0,0,161.788,161.835Z" transform="translate(-153.865 -153.491)" fill="#2755a2"/>
      </g>
    </g>
  </g>
</svg>
