<svg id="Слой_1" data-name="Слой 1" xmlns="http://www.w3.org/2000/svg" xmlns:xlink="http://www.w3.org/1999/xlink" width="166.068" height="84.921" viewBox="0 0 166.068 84.921">
  <defs>
    <linearGradient id="linear-gradient" x1="0.5" y1="1.001" x2="0.5" gradientUnits="objectBoundingBox">
      <stop offset="0" stop-color="#202950"/>
      <stop offset="0.32" stop-color="#2e398d"/>
      <stop offset="0.42" stop-color="#2d3c8f"/>
      <stop offset="0.48" stop-color="#2b4596"/>
      <stop offset="0.54" stop-color="#2854a2"/>
      <stop offset="0.59" stop-color="#2369b2"/>
      <stop offset="0.63" stop-color="#1d84c7"/>
      <stop offset="0.64" stop-color="#1b8ccd"/>
      <stop offset="1" stop-color="#373c8f"/>
    </linearGradient>
    <linearGradient id="linear-gradient-2" x1="0.5" y1="1" x2="0.5" y2="-0.001" xlink:href="#linear-gradient"/>
    <linearGradient id="linear-gradient-3" x1="0.502" y1="0.999" x2="0.502" y2="0.001" xlink:href="#linear-gradient"/>
    <linearGradient id="linear-gradient-4" x1="0.5" y1="1" x2="0.5" y2="0" xlink:href="#linear-gradient"/>
    <linearGradient id="linear-gradient-5" x1="0.499" y1="0.999" x2="0.499" y2="0" xlink:href="#linear-gradient"/>
    <linearGradient id="linear-gradient-6" x1="0.501" y1="1" x2="0.501" y2="0" xlink:href="#linear-gradient"/>
    <linearGradient id="linear-gradient-7" x1="0.497" y1="0.999" x2="0.497" y2="0" xlink:href="#linear-gradient"/>
    <linearGradient id="linear-gradient-8" x1="0.5" y1="0.999" x2="0.5" y2="0.002" xlink:href="#linear-gradient"/>
    <linearGradient id="linear-gradient-9" x1="0.5" y1="1" x2="0.5" y2="0.001" xlink:href="#linear-gradient"/>
    <linearGradient id="linear-gradient-10" x1="0.5" y1="1.002" x2="0.5" y2="0.001" xlink:href="#linear-gradient"/>
    <linearGradient id="linear-gradient-11" x1="0.5" y1="-0.007" x2="0.5" y2="1.011" gradientUnits="objectBoundingBox">
      <stop offset="0" stop-color="#30358c"/>
      <stop offset="1" stop-color="#2dabe3"/>
    </linearGradient>
    <linearGradient id="linear-gradient-12" x1="0.5" y1="-0.006" x2="0.5" y2="1.008" gradientUnits="objectBoundingBox">
      <stop offset="0" stop-color="#363f92"/>
      <stop offset="1" stop-color="#46bced"/>
    </linearGradient>
    <linearGradient id="linear-gradient-13" x1="0.5" y1="-0.006" x2="0.5" y2="1.007" xlink:href="#linear-gradient-12"/>
    <linearGradient id="linear-gradient-14" x1="0.5" y1="-0.86" x2="0.5" y2="0.954" gradientUnits="objectBoundingBox">
      <stop offset="0" stop-color="#2f2654"/>
      <stop offset="0.29" stop-color="#364e9d"/>
      <stop offset="0.94" stop-color="#5ec4e5"/>
    </linearGradient>
    <linearGradient id="linear-gradient-15" x1="0.5" x2="0.5" y2="1" gradientUnits="objectBoundingBox">
      <stop offset="0" stop-color="#353b90"/>
      <stop offset="1" stop-color="#41b4e8"/>
    </linearGradient>
    <linearGradient id="linear-gradient-16" x1="0.501" y1="0" x2="0.501" y2="1" xlink:href="#linear-gradient-15"/>
    <linearGradient id="linear-gradient-17" x1="0.501" x2="0.501" y2="1.001" gradientUnits="objectBoundingBox">
      <stop offset="0" stop-color="#2855a2"/>
      <stop offset="0.31" stop-color="#2455a3"/>
      <stop offset="1" stop-color="#41b7ea"/>
    </linearGradient>
  </defs>
  <path id="Контур_184" data-name="Контур 184" d="M98.3,24.55h1.644v2.9a7.6,7.6,0,0,0,.193,2.031,1.354,1.354,0,0,0,.648.851,3.181,3.181,0,0,0,1.508.261,13.2,13.2,0,0,0,3.172-.464V24.55h1.653v11.6h-1.663V31.435a16.7,16.7,0,0,1-3.578.5,3.694,3.694,0,0,1-2.727-.88,4.042,4.042,0,0,1-.851-2.9Z" transform="translate(-3.253 -0.812)" fill="url(#linear-gradient)"/>
  <path id="Контур_185" data-name="Контур 185" d="M110.75,36.163V24.56h1.566v9.582l5.192-9.582h2.369v11.6h-1.566V26.146l-5.492,10.018Z" transform="translate(-3.666 -0.812)" fill="url(#linear-gradient-2)"/>
  <path id="Контур_186" data-name="Контур 186" d="M132.95,34.124a5.366,5.366,0,0,1-1.189,1.344,4.419,4.419,0,0,1-1.421.687,6.566,6.566,0,0,1-1.934.242,5.115,5.115,0,0,1-4.071-1.508,6.768,6.768,0,0,1-1.315-4.545,6.769,6.769,0,0,1,1.305-4.535,5.018,5.018,0,0,1,4.013-1.508,6.923,6.923,0,0,1,1.934.251,4.641,4.641,0,0,1,1.421.7,4.274,4.274,0,0,1,1.064,1.238l-1.354.832a3.8,3.8,0,0,0-.793-.967,3.007,3.007,0,0,0-.967-.512,4.08,4.08,0,0,0-1.305-.193,3.181,3.181,0,0,0-2.717,1.17,5.8,5.8,0,0,0-.861,3.5,5.956,5.956,0,0,0,.851,3.5,3.162,3.162,0,0,0,2.746,1.17,3.965,3.965,0,0,0,1.818-.387,3.665,3.665,0,0,0,1.392-1.344Z" transform="translate(-4.07 -0.803)" fill="url(#linear-gradient-3)"/>
  <path id="Контур_187" data-name="Контур 187" d="M140.1,25.952V36.163H138.47V25.952h-4.08v-1.4h9.8v1.4Z" transform="translate(-4.447 -0.812)" fill="url(#linear-gradient-4)"/>
  <path id="Контур_188" data-name="Контур 188" d="M146.57,36.163V24.56h1.644v4.448h2.011a5.8,5.8,0,0,1,3.568.88,3.317,3.317,0,0,1,1.112,2.833,3.017,3.017,0,0,1-1.151,2.611,6,6,0,0,1-3.433.832Zm6.614-3.51a2.64,2.64,0,0,0-.3-1.363,1.625,1.625,0,0,0-.967-.706,6.188,6.188,0,0,0-1.934-.232h-1.76V34.8h1.992a4.129,4.129,0,0,0,2.195-.493,1.789,1.789,0,0,0,.774-1.653Zm3.742-8.1h1.663v11.6h-1.644Z" transform="translate(-4.85 -0.812)" fill="url(#linear-gradient-5)"/>
  <path id="Контур_189" data-name="Контур 189" d="M162.32,36.051v-11.6h1.566V34.03l5.192-9.582h2.359v11.6h-1.566V26.033L164.38,36.051Zm7.552-14.9a1.934,1.934,0,0,1-.348,1.1,2.273,2.273,0,0,1-.967.764,4.09,4.09,0,0,1-1.566.271,3.868,3.868,0,0,1-1.528-.28,2.263,2.263,0,0,1-1.015-.783,1.837,1.837,0,0,1-.358-1.073h1.4a1.508,1.508,0,0,0,.5.967,1.547,1.547,0,0,0,.967.309,1.624,1.624,0,0,0,1.112-.309,1.605,1.605,0,0,0,.435-.967Z" transform="translate(-5.37 -0.699)" fill="url(#linear-gradient-6)"/>
  <path id="Контур_190" data-name="Контур 190" d="M100.843,53.994a4.351,4.351,0,0,0,3.926,2.263,3.665,3.665,0,0,0,2.195-.648,2,2,0,0,0,.88-1.711,2.147,2.147,0,0,0-.629-1.711,3.191,3.191,0,0,0-2.079-.541H101.52V48.928h3.8a2.388,2.388,0,0,0,1.692-.551,2.137,2.137,0,0,0,.59-1.624,1.615,1.615,0,0,0-.87-1.412,3.974,3.974,0,0,0-2.176-.541,7.145,7.145,0,0,0-1.934.28,8.518,8.518,0,0,0-2.253,1.122l-1.741-2.359a11.9,11.9,0,0,1,9.669-1.18,4.767,4.767,0,0,1,2.272,1.566,4,4,0,0,1,.774,2.456,3.81,3.81,0,0,1-.725,2.34,3.645,3.645,0,0,1-1.789,1.334,3.759,3.759,0,0,1,2.736,3.607,4.322,4.322,0,0,1-1.74,3.713,8.412,8.412,0,0,1-4.931,1.257,9.341,9.341,0,0,1-4.032-.8A7.02,7.02,0,0,1,98,55.59Z" transform="translate(-3.244 -1.393)" fill="url(#linear-gradient-7)"/>
  <path id="Контур_191" data-name="Контур 191" d="M127.472,53.928a3.868,3.868,0,0,1-1.77,3.558,9.06,9.06,0,0,1-4.922,1.122h-6.42V42.479h6.034a9.2,9.2,0,0,1,4.709.9,3.143,3.143,0,0,1,1.421,2.9,3.665,3.665,0,0,1-.774,2.437,3.994,3.994,0,0,1-2.417,1.247,5.173,5.173,0,0,1,3.133,1.276,3.713,3.713,0,0,1,1.006,2.688Zm-4.448-6.962a1.3,1.3,0,0,0-.716-1.276,5.163,5.163,0,0,0-2.224-.358h-2.2v3.452h2.127a5,5,0,0,0,2.292-.406,1.489,1.489,0,0,0,.725-1.412Zm.89,6.672a1.625,1.625,0,0,0-.783-1.528,6.411,6.411,0,0,0-2.9-.454h-2.35v4.032h1.77a13.9,13.9,0,0,0,2.8-.184,1.65,1.65,0,0,0,1.46-1.886Z" transform="translate(-3.785 -1.403)" fill="url(#linear-gradient-8)"/>
  <path id="Контур_192" data-name="Контур 192" d="M136.634,50.341l3.481-7.861h3.674l-6.3,13.17a8.7,8.7,0,0,1-1.218,1.934,3.868,3.868,0,0,1-1.383,1.035,5.183,5.183,0,0,1-2,.319,10.743,10.743,0,0,1-1.7-.213,8.992,8.992,0,0,1-1.886-.493l1.015-2.553a5.53,5.53,0,0,0,1.257.4,5.454,5.454,0,0,0,1.16.184,1.654,1.654,0,0,0,1.112-.474,5.434,5.434,0,0,0,1.064-1.992L128.84,42.47H132.6Z" transform="translate(-4.264 -1.404)" fill="url(#linear-gradient-9)"/>
  <path id="Контур_193" data-name="Контур 193" d="M149.261,42.479v6.585h1.934a1.586,1.586,0,0,0,1.228-.648,7.6,7.6,0,0,0,1.064-2.089c.348-.967.745-2.234,1.17-3.868h3.6a27.074,27.074,0,0,1-1.731,5.241,6.1,6.1,0,0,1-2.089,2.62,5.444,5.444,0,0,1,1.721,1.363,8.5,8.5,0,0,1,1.238,2.234,43.7,43.7,0,0,1,1.4,4.661h-3.616c-.319-1.131-.609-2.118-.87-2.978a11.7,11.7,0,0,0-.851-2.127,3.607,3.607,0,0,0-1.025-1.257A2.33,2.33,0,0,0,151,51.791h-1.74V58.56H145.78V42.479Z" transform="translate(-4.824 -1.404)" fill="url(#linear-gradient-10)"/>
  <path id="Контур_194" data-name="Контур 194" d="M88.69,78.052a1.625,1.625,0,0,1-.541,1.093,4.757,4.757,0,0,1-.967.745,13.739,13.739,0,0,1-2.282.967,39.442,39.442,0,0,1-4.835,1.3,99.822,99.822,0,0,1-9.911,1.528,194,194,0,0,1-19.967.967,199.581,199.581,0,0,1-19.977-.88c-3.326-.338-6.633-.764-9.911-1.431a38.68,38.68,0,0,1-4.835-1.267,14.08,14.08,0,0,1-2.321-1.015,4.835,4.835,0,0,1-1.054-.774,1.828,1.828,0,0,1-.619-1.257,1.934,1.934,0,0,1,.609-1.257,5.153,5.153,0,0,1,1.064-.774,14.078,14.078,0,0,1,2.321-1.015A38.678,38.678,0,0,1,20.3,73.711c3.278-.667,6.585-1.093,9.911-1.431a199.57,199.57,0,0,1,19.977-.88c6.662,0,13.334.309,19.967.967,3.317.367,6.624.812,9.882,1.489a41.257,41.257,0,0,1,4.835,1.3,13.024,13.024,0,0,1,2.282.967,4.4,4.4,0,0,1,.967.735,1.624,1.624,0,0,1,.57,1.2Zm0,0a1.625,1.625,0,0,0-.541-1.083,4.709,4.709,0,0,0-.967-.735,14.156,14.156,0,0,0-2.292-.967A41.141,41.141,0,0,0,80.055,74c-3.268-.658-6.575-1.083-9.882-1.421a199.339,199.339,0,0,0-19.958-.88c-6.662,0-13.324.309-19.948.967a99.25,99.25,0,0,0-9.853,1.489,40.227,40.227,0,0,0-4.835,1.276,13.76,13.76,0,0,0-2.243.967c-.667.4-1.4.967-1.431,1.624s.764,1.228,1.431,1.624a13.76,13.76,0,0,0,2.243.967A40.261,40.261,0,0,0,20.414,81.9c3.249.677,6.546,1.122,9.853,1.479a199.1,199.1,0,0,0,19.948.967,199.316,199.316,0,0,0,19.929-.764c3.307-.338,6.614-.764,9.882-1.421A39.325,39.325,0,0,0,84.861,80.9a13.354,13.354,0,0,0,2.292-.967,4.4,4.4,0,0,0,.967-.735,1.624,1.624,0,0,0,.57-1.141Z" transform="translate(-0.383 -2.36)" fill="url(#linear-gradient-11)"/>
  <path id="Контур_195" data-name="Контур 195" d="M95.506,77.964a1.934,1.934,0,0,1-.638,1.276,5.241,5.241,0,0,1-1.18.87,16.5,16.5,0,0,1-2.63,1.189,49.372,49.372,0,0,1-5.666,1.508c-3.819.8-7.736,1.315-11.6,1.741-7.736.8-15.6,1.131-23.41,1.16a233.886,233.886,0,0,1-23.419-1.044c-3.868-.4-7.736-.9-11.6-1.682a45.128,45.128,0,0,1-5.715-1.489A17,17,0,0,1,6.934,80.3a5.434,5.434,0,0,1-1.218-.9A2.156,2.156,0,0,1,5,77.964a2.127,2.127,0,0,1,.706-1.441,5.714,5.714,0,0,1,1.228-.9,17.047,17.047,0,0,1,2.707-1.2,48.686,48.686,0,0,1,5.686-1.518c3.868-.774,7.736-1.276,11.6-1.673A233.892,233.892,0,0,1,50.35,70.19a233.661,233.661,0,0,1,23.41,1.16c3.868.425,7.735.967,11.6,1.741a45.709,45.709,0,0,1,5.7,1.537,15.7,15.7,0,0,1,2.63,1.18,4.97,4.97,0,0,1,1.18.87A1.934,1.934,0,0,1,95.506,77.964Zm0,0a1.934,1.934,0,0,0-.648-1.276,5.705,5.705,0,0,0-1.17-.88,16.891,16.891,0,0,0-2.63-1.151,46.033,46.033,0,0,0-5.666-1.479c-3.868-.774-7.736-1.276-11.6-1.673a233.344,233.344,0,0,0-23.4-1.044,233.086,233.086,0,0,0-23.381,1.16c-3.868.416-7.736.967-11.6,1.731a48.749,48.749,0,0,0-5.57,1.489,15.665,15.665,0,0,0-2.63,1.17c-.793.464-1.653,1.1-1.692,1.934s.9,1.47,1.692,1.934a15.664,15.664,0,0,0,2.63,1.189,48.743,48.743,0,0,0,5.579,1.508c3.819.793,7.736,1.315,11.6,1.731a233.089,233.089,0,0,0,23.342,1.17,233.362,233.362,0,0,0,23.4-1.044c3.868-.4,7.735-.9,11.6-1.673a49.777,49.777,0,0,0,5.7-1.489,16.893,16.893,0,0,0,2.678-1.17,5.7,5.7,0,0,0,1.17-.861A1.934,1.934,0,0,0,95.506,77.964Z" transform="translate(-0.169 -2.32)" fill="url(#linear-gradient-12)"/>
  <path id="Контур_196" data-name="Контур 196" d="M99.237,78.056a3.423,3.423,0,0,1-1.876,2.466,16.322,16.322,0,0,1-2.9,1.412,46.355,46.355,0,0,1-6.2,1.808,121.063,121.063,0,0,1-12.735,2.079A239.2,239.2,0,0,1,49.74,87.194a237.071,237.071,0,0,1-25.8-1.257,121.389,121.389,0,0,1-12.773-2.011,47.089,47.089,0,0,1-6.227-1.789,16.148,16.148,0,0,1-2.9-1.421A6.179,6.179,0,0,1,.706,79.633a2.176,2.176,0,0,1,0-3.2A6.71,6.71,0,0,1,2,75.368a16.545,16.545,0,0,1,2.949-1.421,47.089,47.089,0,0,1,6.227-1.789,121.391,121.391,0,0,1,12.773-2.011,237.063,237.063,0,0,1,25.8-1.257,239.2,239.2,0,0,1,25.788,1.373,121.064,121.064,0,0,1,12.744,2.079,46.358,46.358,0,0,1,6.2,1.808,16.323,16.323,0,0,1,2.9,1.412,3.423,3.423,0,0,1,1.857,2.495Zm0,0a3.442,3.442,0,0,0-1.886-2.466,16,16,0,0,0-2.9-1.392,45.823,45.823,0,0,0-6.2-1.779,117.842,117.842,0,0,0-12.735-2.011A236.59,236.59,0,0,0,49.74,69.151,238.673,238.673,0,0,0,23.98,70.524a122.624,122.624,0,0,0-12.715,2.069,47.871,47.871,0,0,0-6.159,1.8,16.235,16.235,0,0,0-2.852,1.373,3.239,3.239,0,0,0-1.77,2.292,3.249,3.249,0,0,0,1.77,2.263,15.588,15.588,0,0,0,2.9,1.392A46.413,46.413,0,0,0,11.265,83.5,120.1,120.1,0,0,0,23.98,85.579,236.228,236.228,0,0,0,49.74,86.952,236.6,236.6,0,0,0,75.518,85.7a117.839,117.839,0,0,0,12.735-2.011,47.236,47.236,0,0,0,6.2-1.77,16.719,16.719,0,0,0,2.9-1.4,3.442,3.442,0,0,0,1.886-2.456Z" transform="translate(-0.004 -2.277)" fill="url(#linear-gradient-13)"/>
  <path id="Контур_197" data-name="Контур 197" d="M77.792,47.987A36.318,36.318,0,0,1,51.037,60.209a4.282,4.282,0,0,1-.5,0,8.7,8.7,0,0,1-.967,0A36.3,36.3,0,0,1,23,47.61a27.751,27.751,0,0,0,.919,10.153c1.837,6.662,9.573,19.8,26.465,19.8s24.6-13.141,26.455-19.8a27.258,27.258,0,0,0,.957-9.776Z" transform="translate(-0.76 -1.574)" fill="url(#linear-gradient-14)"/>
  <path id="Контур_198" data-name="Контур 198" d="M49.552,59.424A36.3,36.3,0,0,1,23,46.844c.551-5.744,2.9-12.077,7.571-19.735.512-.822,1.093-1.731,1.731-2.669a31.532,31.532,0,0,0,7.736,15.877C38.1,44.378,37.823,47.6,38.684,50.673a12.193,12.193,0,0,0,10.868,8.751Z" transform="translate(-0.765 -0.808)" fill="url(#linear-gradient-15)"/>
  <path id="Контур_199" data-name="Контур 199" d="M78.678,48.11A36.289,36.289,0,0,1,52,60.226a12.145,12.145,0,0,0,11.033-8.7h1.344A31.358,31.358,0,0,0,78.678,48.11Z" transform="translate(-1.723 -1.59)" fill="url(#linear-gradient-16)"/>
  <path id="Контур_200" data-name="Контур 200" d="M78.112,46.413l-.077.077a5.335,5.335,0,0,1-.532.251,31.193,31.193,0,0,1-13.74,3.172H62.418a12.174,12.174,0,0,0,.242-5.628,22.307,22.307,0,0,0-3.2-7.648c-2.475-4.042-8.78-11.671-8.78-11.671s-2.05,2.475-4.264,5.347c-1.7,2.195-3.471,4.583-4.545,6.324a27.819,27.819,0,0,0-1.6,2.9A31.532,31.532,0,0,1,32.54,23.661c.812-1.228,1.74-2.543,2.717-3.868,1.934-2.727,4.139-5.6,6.227-8.306C46.367,5.231,50.7,0,50.7,0s8.877,10.743,15.374,19.745C67.785,22.133,69.332,24.4,70.5,26.3,75.3,34.123,77.638,40.612,78.112,46.413Z" transform="translate(-1.08)" fill="url(#linear-gradient-17)"/>
</svg>
