<svg xmlns="http://www.w3.org/2000/svg" width="9.007" height="9.007" viewBox="0 0 9.007 9.007">
  <g id="logout" transform="translate(0 -0.004)">
    <path id="Контур_202" data-name="Контур 202" d="M5.629,4.883a.375.375,0,0,0-.375.375v1.5a.376.376,0,0,1-.375.375H3.753V1.5A.756.756,0,0,0,3.242.792L3.131.754H4.879a.376.376,0,0,1,.375.375V2.256a.375.375,0,1,0,.751,0V1.13A1.127,1.127,0,0,0,4.879,0H.844A.3.3,0,0,0,.8.012C.786.011.769,0,.751,0A.751.751,0,0,0,0,.754V7.51a.756.756,0,0,0,.511.713l2.259.753A.777.777,0,0,0,3,9.011a.751.751,0,0,0,.751-.751V7.885H4.879A1.127,1.127,0,0,0,6,6.759v-1.5a.375.375,0,0,0-.375-.375Zm0,0" fill="#2755a2"/>
    <path id="Контур_203" data-name="Контур 203" d="M281.35,108.277l-1.5-1.5a.375.375,0,0,0-.641.265v1.126h-1.5a.375.375,0,1,0,0,.751h1.5v1.126a.375.375,0,0,0,.641.265l1.5-1.5A.375.375,0,0,0,281.35,108.277Zm0,0" transform="translate(-272.453 -104.785)" fill="#2755a2"/>
  </g>
</svg>
