<!-- Generated by IcoMoon.io -->
<svg version="1.1" xmlns="http://www.w3.org/2000/svg" width="1024" height="1024" viewBox="0 0 1024 1024">
<title></title>
<g id="icomoon-ignore">
</g>
<path fill="#000" d="M981.333 553.781h-938.667c-23.552 0-42.667-19.115-42.667-42.667s19.115-42.667 42.667-42.667h938.667c23.552 0 42.667 19.115 42.667 42.667s-19.115 42.667-42.667 42.667z"></path>
<path fill="#000" d="M981.333 226.667h-938.667c-23.552 0-42.667-19.115-42.667-42.667s19.115-42.667 42.667-42.667h938.667c23.552 0 42.667 19.115 42.667 42.667s-19.115 42.667-42.667 42.667z"></path>
<path fill="#000" d="M981.333 880.885h-938.667c-23.552 0-42.667-19.115-42.667-42.667s19.115-42.667 42.667-42.667h938.667c23.552 0 42.667 19.115 42.667 42.667s-19.115 42.667-42.667 42.667z"></path>
</svg>
