<?xml version="1.0" standalone="no"?>
<!DOCTYPE svg PUBLIC "-//W3C//DTD SVG 1.1//EN" "http://www.w3.org/Graphics/SVG/1.1/DTD/svg11.dtd" >
<svg xmlns="http://www.w3.org/2000/svg" xmlns:xlink="http://www.w3.org/1999/xlink" version="1.1">
<metadata>
Created by FontForge 20191125 at Thu Feb 28 18:40:05 2019
 By convertio
Copyright \(c\) 2019 by Jeremy Nelson. All rights reserved.
</metadata>
<defs>
<font id="ApexMk3-Medium" horiz-adv-x="546" >
  <font-face 
    font-family="Apex Mk3 Medium"
    font-weight="500"
    font-stretch="normal"
    units-per-em="1000"
    panose-1="0 0 5 0 0 0 0 0 0 0"
    ascent="800"
    descent="-200"
    cap-height="700"
    bbox="-294 -152 794 835"
    underline-thickness="50"
    underline-position="-100"
    unicode-range="U+0020-2212"
  />
<missing-glyph horiz-adv-x="494" 
d="M405 835v-987h-313v987h313zM329 769h-163v-33h64v-36h-65v-33h164v33h-65v36h65v33zM264 642h-99v-103h164v33h-65v70zM230 608v-36h-33v36h33zM329 512h-164v-32h65v-37h-65v-32h99v69h65v32zM329 453h-33v-65h-131v-34h164v99zM329 333h-99v-56h34v23h32v-46h-99v79
h-32v-112h164v112zM329 162h-164v-112h164v112zM296 129v-46h-99v46h99zM329 28h-164v-33h69l-69 -46v-33h164v33h-101l69 46h32v33z" />
    <glyph glyph-name=".notdef" horiz-adv-x="494" 
d="M405 835v-987h-313v987h313zM329 769h-163v-33h64v-36h-65v-33h164v33h-65v36h65v33zM264 642h-99v-103h164v33h-65v70zM230 608v-36h-33v36h33zM329 512h-164v-32h65v-37h-65v-32h99v69h65v32zM329 453h-33v-65h-131v-34h164v99zM329 333h-99v-56h34v23h32v-46h-99v79
h-32v-112h164v112zM329 162h-164v-112h164v112zM296 129v-46h-99v46h99zM329 28h-164v-33h69l-69 -46v-33h164v33h-101l69 46h32v33z" />
    <glyph glyph-name="space" unicode=" " horiz-adv-x="282" 
 />
    <glyph glyph-name="A" unicode="A" horiz-adv-x="583" 
d="M439 0l-43 156h-209l-43 -156h-124l206 700h131l206 -700h-124zM218 269h147l-73 269z" />
    <glyph glyph-name="A" unicode="a" horiz-adv-x="583" 
d="M439 0l-43 156h-209l-43 -156h-124l206 700h131l206 -700h-124zM218 269h147l-73 269z" />
    <glyph glyph-name="B" unicode="B" horiz-adv-x="548" 
d="M426 700c44 0 74 -31 74 -72v-211c0 -32 -16 -56 -52 -64c36 -7 52 -31 52 -63v-218c0 -40 -30 -72 -74 -72h-376v700h376zM378 567c0 13 -5 20 -19 20h-187v-177h184c15 0 22 7 22 23v134zM378 274c0 15 -7 22 -22 22h-184v-183h187c14 0 19 7 19 20v141z" />
    <glyph glyph-name="B" unicode="b" horiz-adv-x="548" 
d="M426 700c44 0 74 -31 74 -72v-211c0 -32 -16 -56 -52 -64c36 -7 52 -31 52 -63v-218c0 -40 -30 -72 -74 -72h-376v700h376zM378 567c0 13 -5 20 -19 20h-187v-177h184c15 0 22 7 22 23v134zM378 274c0 15 -7 22 -22 22h-184v-183h187c14 0 19 7 19 20v141z" />
    <glyph glyph-name="C" unicode="C" 
d="M424 700c44 0 74 -31 74 -72v-140h-122v79c0 13 -5 20 -19 20h-168c-14 0 -19 -7 -19 -20v-434c0 -13 5 -20 19 -20h168c14 0 19 7 19 20v79h122v-140c0 -40 -30 -72 -74 -72h-302c-43 0 -74 32 -74 72v556c0 41 31 72 74 72h302z" />
    <glyph glyph-name="C" unicode="c" 
d="M424 700c44 0 74 -31 74 -72v-140h-122v79c0 13 -5 20 -19 20h-168c-14 0 -19 -7 -19 -20v-434c0 -13 5 -20 19 -20h168c14 0 19 7 19 20v79h122v-140c0 -40 -30 -72 -74 -72h-302c-43 0 -74 32 -74 72v556c0 41 31 72 74 72h302z" />
    <glyph glyph-name="D" unicode="D" horiz-adv-x="548" 
d="M426 700c44 0 74 -31 74 -72v-556c0 -40 -30 -72 -74 -72h-376v700h376zM378 567c0 13 -5 20 -19 20h-187v-474h187c14 0 19 7 19 20v434z" />
    <glyph glyph-name="D" unicode="d" horiz-adv-x="548" 
d="M426 700c44 0 74 -31 74 -72v-556c0 -40 -30 -72 -74 -72h-376v700h376zM378 567c0 13 -5 20 -19 20h-187v-474h187c14 0 19 7 19 20v434z" />
    <glyph glyph-name="E" unicode="E" horiz-adv-x="494" 
d="M453 587h-281v-179h210v-114h-210v-181h281v-113h-403v700h403v-113z" />
    <glyph glyph-name="E" unicode="e" horiz-adv-x="494" 
d="M453 587h-281v-179h210v-114h-210v-181h281v-113h-403v700h403v-113z" />
    <glyph glyph-name="F" unicode="F" horiz-adv-x="480" 
d="M454 587h-282v-183h211v-113h-211v-291h-122v700h404v-113z" />
    <glyph glyph-name="F" unicode="f" horiz-adv-x="480" 
d="M454 587h-282v-183h211v-113h-211v-291h-122v700h404v-113z" />
    <glyph glyph-name="G" unicode="G" 
d="M424 700c44 0 74 -31 74 -72v-129h-122v68c0 13 -5 20 -19 20h-168c-14 0 -19 -7 -19 -20v-434c0 -13 5 -20 19 -20h168c14 0 19 7 19 20v164h-103v108h225v-333c0 -40 -30 -72 -74 -72h-302c-43 0 -74 32 -74 72v556c0 41 31 72 74 72h302z" />
    <glyph glyph-name="G" unicode="g" 
d="M424 700c44 0 74 -31 74 -72v-129h-122v68c0 13 -5 20 -19 20h-168c-14 0 -19 -7 -19 -20v-434c0 -13 5 -20 19 -20h168c14 0 19 7 19 20v164h-103v108h225v-333c0 -40 -30 -72 -74 -72h-302c-43 0 -74 32 -74 72v556c0 41 31 72 74 72h302z" />
    <glyph glyph-name="H" unicode="H" horiz-adv-x="558" 
d="M386 700h122v-700h-122v295h-214v-295h-122v700h122v-291h214v291z" />
    <glyph glyph-name="H" unicode="h" horiz-adv-x="558" 
d="M386 700h122v-700h-122v295h-214v-295h-122v700h122v-291h214v291z" />
    <glyph glyph-name="I" unicode="I" horiz-adv-x="228" 
d="M53 0v700h122v-700h-122z" />
    <glyph glyph-name="I" unicode="i" horiz-adv-x="228" 
d="M53 0v700h122v-700h-122z" />
    <glyph glyph-name="J" unicode="J" horiz-adv-x="520" 
d="M348 700h122v-628c0 -40 -30 -72 -74 -72h-302c-43 0 -74 32 -74 72v151h122v-90c0 -13 5 -20 19 -20h168c14 0 19 7 19 20v567z" />
    <glyph glyph-name="J" unicode="j" horiz-adv-x="520" 
d="M348 700h122v-628c0 -40 -30 -72 -74 -72h-302c-43 0 -74 32 -74 72v151h122v-90c0 -13 5 -20 19 -20h168c14 0 19 7 19 20v567z" />
    <glyph glyph-name="K" unicode="K" horiz-adv-x="550" 
d="M436 409c44 0 74 -32 74 -72v-337h-122v276c0 12 -5 19 -19 19h-197v-295h-122v700h122v-291h140l73 291h126l-85 -291h10z" />
    <glyph glyph-name="K" unicode="k" horiz-adv-x="550" 
d="M436 409c44 0 74 -32 74 -72v-337h-122v276c0 12 -5 19 -19 19h-197v-295h-122v700h122v-291h140l73 291h126l-85 -291h10z" />
    <glyph glyph-name="L" unicode="L" horiz-adv-x="451" 
d="M172 113h258v-113h-380v700h122v-587z" />
    <glyph glyph-name="L" unicode="l" horiz-adv-x="451" 
d="M172 113h258v-113h-380v700h122v-587z" />
    <glyph glyph-name="M" unicode="M" horiz-adv-x="713" 
d="M663 700v-700h-122v488l-134 -400h-105l-130 386v-474h-122v700h166l138 -419l138 419h171z" />
    <glyph glyph-name="M" unicode="m" horiz-adv-x="713" 
d="M663 700v-700h-122v488l-134 -400h-105l-130 386v-474h-122v700h166l138 -419l138 419h171z" />
    <glyph glyph-name="N" unicode="N" horiz-adv-x="579" 
d="M410 700h120v-700h-138l-222 461v-461h-120v700h140l220 -458v458z" />
    <glyph glyph-name="N" unicode="n" horiz-adv-x="579" 
d="M410 700h120v-700h-138l-222 461v-461h-120v700h140l220 -458v458z" />
    <glyph glyph-name="O" unicode="O" 
d="M424 700c44 0 74 -31 74 -72v-556c0 -40 -30 -72 -74 -72h-302c-43 0 -74 32 -74 72v556c0 41 31 72 74 72h302zM376 567c0 13 -5 20 -19 20h-168c-14 0 -19 -7 -19 -20v-434c0 -13 5 -20 19 -20h168c14 0 19 7 19 20v434z" />
    <glyph glyph-name="O" unicode="o" 
d="M424 700c44 0 74 -31 74 -72v-556c0 -40 -30 -72 -74 -72h-302c-43 0 -74 32 -74 72v556c0 41 31 72 74 72h302zM376 567c0 13 -5 20 -19 20h-168c-14 0 -19 -7 -19 -20v-434c0 -13 5 -20 19 -20h168c14 0 19 7 19 20v434z" />
    <glyph glyph-name="P" unicode="P" horiz-adv-x="522" 
d="M406 700c44 0 74 -31 74 -72v-312c0 -40 -30 -72 -74 -72h-234v-244h-122v700h356zM358 567c0 13 -5 20 -19 20h-167v-229h167c14 0 19 7 19 19v190z" />
    <glyph glyph-name="P" unicode="p" horiz-adv-x="522" 
d="M406 700c44 0 74 -31 74 -72v-312c0 -40 -30 -72 -74 -72h-234v-244h-122v700h356zM358 567c0 13 -5 20 -19 20h-167v-229h167c14 0 19 7 19 19v190z" />
    <glyph glyph-name="Q" unicode="Q" 
d="M424 700c44 0 74 -31 74 -72v-556c0 -40 -30 -72 -74 -72h-2l39 -93h-111l-34 93h-194c-43 0 -74 32 -74 72v556c0 41 31 72 74 72h302zM376 567c0 13 -5 20 -19 20h-168c-14 0 -19 -7 -19 -20v-434c0 -13 5 -20 19 -20h168c14 0 19 7 19 20v434z" />
    <glyph glyph-name="Q" unicode="q" 
d="M424 700c44 0 74 -31 74 -72v-556c0 -40 -30 -72 -74 -72h-2l39 -93h-111l-34 93h-194c-43 0 -74 32 -74 72v556c0 41 31 72 74 72h302zM376 567c0 13 -5 20 -19 20h-168c-14 0 -19 -7 -19 -20v-434c0 -13 5 -20 19 -20h168c14 0 19 7 19 20v434z" />
    <glyph glyph-name="R" unicode="R" horiz-adv-x="551" 
d="M427 700c43 0 74 -31 74 -72v-233c0 -32 -17 -55 -52 -64c35 -7 52 -31 52 -63v-268h-122v252c0 15 -7 23 -22 23h-185v-275h-122v700h377zM379 567c0 13 -5 20 -19 20h-188v-199h185c15 0 22 8 22 23v156z" />
    <glyph glyph-name="R" unicode="r" horiz-adv-x="551" 
d="M427 700c43 0 74 -31 74 -72v-233c0 -32 -17 -55 -52 -64c35 -7 52 -31 52 -63v-268h-122v252c0 15 -7 23 -22 23h-185v-275h-122v700h377zM379 567c0 13 -5 20 -19 20h-188v-199h185c15 0 22 8 22 23v156z" />
    <glyph glyph-name="S" unicode="S" 
d="M424 700c44 0 74 -31 74 -72v-123h-122v62c0 13 -5 20 -19 20h-168c-14 0 -19 -7 -19 -20v-139c0 -13 5 -20 19 -20h235c44 0 74 -31 74 -72v-264c0 -40 -30 -72 -74 -72h-302c-43 0 -74 32 -74 72v132h122v-71c0 -13 5 -20 19 -20h168c14 0 19 7 19 20v143
c0 12 -5 19 -19 19h-235c-43 0 -74 31 -74 72v261c0 41 31 72 74 72h302z" />
    <glyph glyph-name="S" unicode="s" 
d="M424 700c44 0 74 -31 74 -72v-123h-122v62c0 13 -5 20 -19 20h-168c-14 0 -19 -7 -19 -20v-139c0 -13 5 -20 19 -20h235c44 0 74 -31 74 -72v-264c0 -40 -30 -72 -74 -72h-302c-43 0 -74 32 -74 72v132h122v-71c0 -13 5 -20 19 -20h168c14 0 19 7 19 20v143
c0 12 -5 19 -19 19h-235c-43 0 -74 31 -74 72v261c0 41 31 72 74 72h302z" />
    <glyph glyph-name="T" unicode="T" horiz-adv-x="517" 
d="M483 700v-113h-163v-587h-122v587h-165v113h450z" />
    <glyph glyph-name="T" unicode="t" horiz-adv-x="517" 
d="M483 700v-113h-163v-587h-122v587h-165v113h450z" />
    <glyph glyph-name="U" unicode="U" horiz-adv-x="550" 
d="M378 700h122v-628c0 -40 -30 -72 -74 -72h-302c-43 0 -74 32 -74 72v628h122v-567c0 -13 5 -20 19 -20h168c14 0 19 7 19 20v567z" />
    <glyph glyph-name="U" unicode="u" horiz-adv-x="550" 
d="M378 700h122v-628c0 -40 -30 -72 -74 -72h-302c-43 0 -74 32 -74 72v628h122v-567c0 -13 5 -20 19 -20h168c14 0 19 7 19 20v567z" />
    <glyph glyph-name="V" unicode="V" horiz-adv-x="583" 
d="M439 700h124l-206 -700h-131l-206 700h124l148 -538z" />
    <glyph glyph-name="V" unicode="v" horiz-adv-x="583" 
d="M439 700h124l-206 -700h-131l-206 700h124l148 -538z" />
    <glyph glyph-name="W" unicode="W" horiz-adv-x="765" 
d="M610 700h135l-119 -700h-161l-82 353l-83 -353h-161l-119 700h135l73 -499l99 411h111l99 -411z" />
    <glyph glyph-name="W" unicode="w" horiz-adv-x="765" 
d="M610 700h135l-119 -700h-161l-82 353l-83 -353h-161l-119 700h135l73 -499l99 411h111l99 -411z" />
    <glyph glyph-name="X" unicode="X" horiz-adv-x="548" 
d="M523 700l-163 -350l163 -350h-134l-115 246l-115 -246h-134l164 350l-164 350h134l115 -246l115 246h134z" />
    <glyph glyph-name="X" unicode="x" horiz-adv-x="548" 
d="M523 700l-163 -350l163 -350h-134l-115 246l-115 -246h-134l164 350l-164 350h134l115 -246l115 246h134z" />
    <glyph glyph-name="Y" unicode="Y" horiz-adv-x="582" 
d="M565 700l-213 -497v-203h-122v201l-213 499h130l144 -363l144 363h130z" />
    <glyph glyph-name="Y" unicode="y" horiz-adv-x="582" 
d="M565 700l-213 -497v-203h-122v201l-213 499h130l144 -363l144 363h130z" />
    <glyph glyph-name="Z" unicode="Z" horiz-adv-x="555" 
d="M48 700h463v-115l-325 -472h325v-113h-467v115l322 472h-318v113z" />
    <glyph glyph-name="Z" unicode="z" horiz-adv-x="555" 
d="M48 700h463v-115l-325 -472h325v-113h-467v115l322 472h-318v113z" />
    <glyph glyph-name="zero" unicode="0" 
d="M424 700c44 0 74 -31 74 -72v-556c0 -40 -30 -72 -74 -72h-302c-43 0 -74 32 -74 72v556c0 41 31 72 74 72h302zM376 567c0 13 -5 20 -19 20h-168c-14 0 -19 -7 -19 -20v-434c0 -13 5 -20 19 -20h168c14 0 19 7 19 20v434z" />
    <glyph glyph-name="one" unicode="1" horiz-adv-x="246" 
d="M134 700c43 0 62 -22 62 -60v-640h-121v568c0 12 -6 19 -19 19h-11v113h89z" />
    <glyph glyph-name="two" unicode="2" horiz-adv-x="550" 
d="M426 700c44 0 74 -31 74 -72v-258c0 -40 -30 -71 -74 -71h-225v-1h-10c-14 0 -19 -6 -19 -19v-166h206v92h122v-205h-450v340c0 40 31 72 74 72h235c14 0 19 7 19 19v136c0 13 -5 20 -19 20h-168c-14 0 -19 -7 -19 -20v-58h-122v119c0 41 31 72 74 72h302z" />
    <glyph glyph-name="three" unicode="3" 
d="M424 700c44 0 74 -31 74 -72v-211c0 -32 -16 -56 -52 -64c36 -7 52 -31 52 -63v-218c0 -40 -30 -72 -74 -72h-302c-43 0 -74 32 -74 72v132h122v-71c0 -13 5 -20 19 -20h168c14 0 19 7 19 20v141c0 15 -7 22 -22 22h-165v114h165c15 0 22 7 22 23v134c0 13 -5 20 -19 20
h-168c-14 0 -19 -7 -19 -20v-71h-122v132c0 41 31 72 74 72h302z" />
    <glyph glyph-name="four" unicode="4" horiz-adv-x="528" 
d="M357 700h121v-700h-121v197h-230c-61 0 -102 39 -102 99v42l101 362h118l-99 -363v-7c0 -13 6 -19 19 -19h193v389z" />
    <glyph glyph-name="five" unicode="5" horiz-adv-x="550" 
d="M500 510h-122v77h-206v-156c0 -12 5 -19 19 -19h235c44 0 74 -31 74 -72v-268c0 -40 -30 -72 -74 -72h-302c-43 0 -74 32 -74 72v126h122v-65c0 -13 5 -20 19 -20h168c14 0 19 7 19 20v147c0 12 -5 19 -19 19h-235c-43 0 -74 31 -74 72v329h450v-190z" />
    <glyph glyph-name="six" unicode="6" 
d="M424 700c44 0 74 -31 74 -72v-133h-122v72c0 13 -5 20 -19 20h-168c-14 0 -19 -7 -19 -20v-179c10 18 28 24 51 24h203c44 0 74 -32 74 -72v-268c0 -40 -30 -72 -74 -72h-302c-43 0 -74 32 -74 72v556c0 41 31 72 74 72h302zM190 298c-14 0 -20 -6 -20 -19v-146
c0 -13 5 -20 19 -20h168c14 0 19 7 19 20v146c0 13 -5 19 -19 19h-10v1h-96v-1h-61z" />
    <glyph glyph-name="seven" unicode="7" horiz-adv-x="508" 
d="M20 524v176h468v-116l-195 -584h-130l200 587h-221v-63h-122z" />
    <glyph glyph-name="eight" unicode="8" 
d="M424 700c44 0 74 -31 74 -72v-211c0 -32 -16 -56 -52 -64c36 -7 52 -31 52 -63v-218c0 -40 -30 -72 -74 -72h-302c-43 0 -74 32 -74 72v218c0 32 16 56 52 63c-36 8 -52 32 -52 64v211c0 41 31 72 74 72h302zM376 567c0 13 -5 20 -19 20h-168c-14 0 -19 -7 -19 -20v-134
c0 -16 7 -23 22 -23h162c15 0 22 7 22 23v134zM376 274c0 15 -7 22 -22 22h-162c-15 0 -22 -7 -22 -22v-141c0 -13 5 -20 19 -20h168c14 0 19 7 19 20v141z" />
    <glyph glyph-name="nine" unicode="9" 
d="M424 700c44 0 74 -31 74 -72v-556c0 -40 -30 -72 -74 -72h-302c-43 0 -74 32 -74 72v132h122v-71c0 -13 5 -20 19 -20h168c14 0 19 7 19 20v170c-10 -18 -28 -24 -51 -24h-203c-43 0 -74 32 -74 72v277c0 41 31 72 74 72h302zM376 567c0 13 -5 20 -19 20h-168
c-14 0 -19 -7 -19 -20v-155c0 -13 5 -19 19 -19h167c14 0 20 6 20 19v155z" />
    <glyph glyph-name="period" unicode="." horiz-adv-x="142" 
d="M68 0c-32 0 -55 23 -55 55v13c0 32 23 55 55 55h6c32 0 55 -23 55 -55v-13c0 -32 -23 -55 -55 -55h-6z" />
    <glyph glyph-name="comma" unicode="," horiz-adv-x="173" 
d="M13 -89l43 208h104l-58 -208h-89z" />
    <glyph glyph-name="colon" unicode=":" horiz-adv-x="167" 
d="M80 396c-32 0 -55 23 -55 54v14c0 32 23 55 55 55h7c31 0 54 -23 54 -55v-14c0 -31 -23 -54 -54 -54h-7zM81 43c-32 0 -55 23 -55 54v14c0 31 23 54 55 54h7c31 0 54 -23 54 -54v-14c0 -31 -23 -54 -54 -54h-7z" />
    <glyph glyph-name="semicolon" unicode=";" horiz-adv-x="185" 
d="M99 387c-32 0 -55 23 -55 54v14c0 31 23 54 55 54h6c32 0 55 -23 55 -54v-14c0 -31 -23 -54 -55 -54h-6zM11 -89l43 208h104l-58 -208h-89z" />
    <glyph glyph-name="exclam" unicode="!" horiz-adv-x="208" 
d="M61 177l-23 523h132l-22 -523h-87zM100 0c-32 0 -55 23 -55 55v13c0 32 23 55 55 55h6c32 0 55 -23 55 -55v-13c0 -32 -23 -55 -55 -55h-6z" />
    <glyph glyph-name="question" unicode="?" horiz-adv-x="516" 
d="M409 700c44 0 74 -31 74 -72v-279c0 -40 -30 -72 -74 -72h-86c-14 0 -19 -7 -19 -19v-91h-107v147c0 39 30 70 72 70h73c14 0 19 6 19 19v164c0 13 -5 20 -19 20h-168c-14 0 -19 -7 -19 -20v-69h-122v130c0 41 31 72 74 72h302zM253 123c32 0 55 -23 55 -55v-13
c0 -32 -23 -55 -55 -55h-6c-32 0 -55 23 -55 55v13c0 32 23 55 55 55h6z" />
    <glyph glyph-name="bullet" unicode="&#x2022;" horiz-adv-x="216" 
d="M105 278c-32 0 -55 23 -55 55v13c0 32 23 55 55 55h7c31 0 54 -23 54 -55v-13c0 -32 -23 -55 -54 -55h-7z" />
    <glyph glyph-name="asterisk" unicode="*" horiz-adv-x="413" 
d="M66 362l61 106l-110 -5v98l110 -6l-61 107l92 38l48 -108l47 108l93 -38l-62 -107l112 6v-98l-112 5l62 -106l-93 -39l-47 108l-48 -108z" />
    <glyph glyph-name="numbersign" unicode="#" horiz-adv-x="691" 
d="M633 384h-85l-47 -129h85l-42 -113h-84l-42 -115h-122l42 115h-110l-42 -115h-121l42 115h-91l41 113h91l47 129h-91l42 114h90l41 113h122l-41 -113h110l41 113h122l-41 -113h84zM379 255l47 129h-110l-47 -129h110z" />
    <glyph glyph-name="slash" unicode="/" horiz-adv-x="370" 
d="M20 0l208 700h121l-207 -700h-122z" />
    <glyph glyph-name="backslash" unicode="\" horiz-adv-x="370" 
d="M350 0h-122l-208 700h122z" />
    <glyph glyph-name="parenleft" unicode="(" horiz-adv-x="229" 
d="M166 547h-2v-393h2v-21c0 -13 6 -20 20 -20h10v-113h-77c-44 0 -74 32 -74 72v65h-3v431h3v60c0 41 30 72 74 72h77v-113h-10c-14 0 -20 -7 -20 -20v-20z" />
    <glyph glyph-name="parenright" unicode=")" horiz-adv-x="229" 
d="M187 568v-431h-3v-65c0 -40 -30 -72 -74 -72h-77v113h10c14 0 20 7 20 20v21h2v393h-2v20c0 13 -6 20 -20 20h-10v113h77c44 0 74 -31 74 -72v-60h3z" />
    <glyph glyph-name="braceleft" unicode="{" horiz-adv-x="226" 
d="M187 417c0 -32 -17 -56 -52 -64c35 -7 52 -31 52 -63v-157c0 -13 5 -20 19 -20h10v-113h-77c-43 0 -74 32 -74 72v202c0 15 -8 22 -22 22h-8v114h8c14 0 22 7 22 23v195c0 41 31 72 74 72h77v-113h-10c-14 0 -19 -7 -19 -20v-150z" />
    <glyph glyph-name="braceright" unicode="}" horiz-adv-x="231" 
d="M189 410h7v-114h-7c-15 0 -23 -7 -23 -22v-202c0 -40 -30 -72 -74 -72h-77v113h10c14 0 20 7 20 20v157c0 32 16 56 51 63c-35 8 -51 32 -51 64v150c0 13 -6 20 -20 20h-10v113h77c44 0 74 -31 74 -72v-195c0 -16 8 -23 23 -23z" />
    <glyph glyph-name="bracketleft" unicode="[" horiz-adv-x="247" 
d="M139 132c0 -12 6 -19 18 -19h77v-113h-155c-42 0 -62 22 -62 60v580c0 38 20 60 62 60h155v-113h-77c-12 0 -18 -7 -18 -19v-436z" />
    <glyph glyph-name="bracketright" unicode="]" horiz-adv-x="247" 
d="M168 700c42 0 62 -22 62 -60v-580c0 -38 -20 -60 -62 -60h-155v113h77c13 0 18 7 18 19v436c0 12 -5 19 -18 19h-77v113h155z" />
    <glyph glyph-name="hyphen" unicode="-" horiz-adv-x="289" 
d="M20 294v114h249v-114h-249z" />
    <glyph glyph-name="underscore" unicode="_" horiz-adv-x="479" 
d="M17 -1v110h445v-110h-445z" />
    <glyph glyph-name="quotedblleft" unicode="&#x201c;" horiz-adv-x="371" 
d="M197 701l-43 -208h-104l58 208h89zM358 701l-42 -208h-105l58 208h89z" />
    <glyph glyph-name="quotedblright" unicode="&#x201d;" horiz-adv-x="371" 
d="M13 494l43 208h104l-58 -208h-89zM174 494l43 208h104l-58 -208h-89z" />
    <glyph glyph-name="quoteleft" unicode="&#x2018;" horiz-adv-x="173" 
d="M160 701l-43 -208h-104l58 208h89z" />
    <glyph glyph-name="quoteright" unicode="&#x2019;" horiz-adv-x="172" 
d="M12 494l43 208h104l-58 -208h-89z" />
    <glyph glyph-name="dollar" unicode="$" 
d="M424 700c44 0 74 -31 74 -72v-123h-122v62c0 13 -5 20 -19 20h-168c-14 0 -19 -7 -19 -20v-139c0 -13 5 -20 19 -20h235c44 0 74 -31 74 -72v-264c0 -40 -30 -72 -74 -72h-84v-85h-118v85h-100c-43 0 -74 32 -74 72v132h122v-71c0 -13 5 -20 19 -20h168c14 0 19 7 19 20
v143c0 12 -5 19 -19 19h-235c-43 0 -74 31 -74 72v261c0 41 31 72 74 72h100v84h118v-84h84z" />
    <glyph glyph-name="plus" unicode="+" horiz-adv-x="518" 
d="M493 431v-114h-177v-177h-113v177h-178v114h178v177h113v-177h177z" />
    <glyph glyph-name="minus" unicode="&#x2212;" horiz-adv-x="407" 
d="M25 409h357v-120h-357v120z" />
    <glyph glyph-name="multiply" unicode="&#xd7;" horiz-adv-x="461" 
d="M436 481l-125 -125l125 -125l-80 -80l-125 125l-126 -126l-80 80l126 126l-126 126l80 80l126 -126l125 125z" />
    <glyph glyph-name="divide" unicode="&#xf7;" horiz-adv-x="499" 
d="M246 480c-32 0 -55 23 -55 55v13c0 32 23 55 55 55h7c32 0 55 -23 55 -55v-13c0 -32 -23 -55 -55 -55h-7zM25 296v113h449v-113h-449zM246 95c-32 0 -55 23 -55 55v13c0 32 23 55 55 55h7c32 0 55 -23 55 -55v-13c0 -32 -23 -55 -55 -55h-7z" />
    <glyph glyph-name="equal" unicode="=" horiz-adv-x="437" 
d="M25 412v113h387v-113h-387zM25 168v113h387v-113h-387z" />
    <glyph glyph-name="greater" unicode="&#x3e;" horiz-adv-x="375" 
d="M50 27v155l195 150l-195 151v154l305 -238v-132z" />
    <glyph glyph-name="less" unicode="&#x3c;" horiz-adv-x="375" 
d="M325 27l-305 240v132l305 238v-154l-195 -151l195 -150v-155z" />
    <glyph glyph-name="percent" unicode="%" horiz-adv-x="585" 
d="M29 0l411 700h108l-411 -700h-108zM94 456c-37 0 -63 25 -63 61v122c0 36 26 61 63 61h112c37 0 62 -25 62 -61v-122c0 -36 -25 -61 -62 -61h-112zM131 539h37c11 0 18 9 18 18v42c0 9 -7 18 -18 18h-37c-10 0 -18 -9 -18 -18v-42c0 -9 8 -18 18 -18zM386 0
c-37 0 -63 26 -63 61v122c0 36 26 61 63 61h112c37 0 62 -25 62 -61v-122c0 -35 -25 -61 -62 -61h-112zM423 83h37c11 0 18 9 18 18v42c0 9 -7 18 -18 18h-37c-10 0 -18 -9 -18 -18v-42c0 -9 8 -18 18 -18z" />
    <glyph glyph-name="at" unicode="@" horiz-adv-x="556" 
d="M112 0c-42 0 -77 32 -77 72v410c0 40 35 72 77 72h332c42 0 77 -32 77 -72v-307c0 -27 -23 -47 -51 -47h-80c-23 0 -42 14 -45 36c-4 -22 -25 -36 -48 -36h-76c-28 0 -51 20 -51 48v202c0 27 23 48 51 48h162v-210c0 -7 7 -13 13 -13h32c7 0 13 6 13 13v232
c0 17 -11 30 -30 30h-266c-19 0 -30 -13 -30 -30v-342c0 -17 11 -30 30 -30h376v-76h-409zM262 203h30c8 0 13 6 13 13v135h-43c-7 0 -12 -6 -12 -13v-122c0 -7 5 -13 12 -13z" />
    <glyph glyph-name="ampersand" unicode="&#x26;" horiz-adv-x="590" 
d="M547 409v-113h-39v-224c0 -40 -31 -72 -74 -72h-312c-43 0 -74 32 -74 72v218c0 32 16 56 52 63c-36 8 -52 32 -52 64v211c0 41 31 72 74 72h386v-113h-319c-14 0 -19 -7 -19 -20v-134c0 -16 7 -24 22 -24h194v55h122v-55h39zM386 296h-194c-15 0 -22 -8 -22 -22v-141
c0 -13 5 -20 19 -20h178c14 0 19 7 19 20v163z" />
    <glyph glyph-name="Aacute" unicode="&#xc1;" horiz-adv-x="583" 
d="M419 822l-94 -92h-93l78 92h109zM439 0l-43 156h-209l-43 -156h-124l206 700h131l206 -700h-124zM218 269h147l-73 269z" />
    <glyph glyph-name="Aacute" unicode="&#xe1;" horiz-adv-x="583" 
d="M419 822l-94 -92h-93l78 92h109zM439 0l-43 156h-209l-43 -156h-124l206 700h131l206 -700h-124zM218 269h147l-73 269z" />
    <glyph glyph-name="Acircumflex" unicode="&#xc2;" horiz-adv-x="583" 
d="M291 780l-42 -50h-105l94 94h105l94 -94h-104zM439 0l-43 156h-209l-43 -156h-124l206 700h131l206 -700h-124zM218 269h147l-73 269z" />
    <glyph glyph-name="Acircumflex" unicode="&#xe2;" horiz-adv-x="583" 
d="M291 780l-42 -50h-105l94 94h105l94 -94h-104zM439 0l-43 156h-209l-43 -156h-124l206 700h131l206 -700h-124zM218 269h147l-73 269z" />
    <glyph glyph-name="Adieresis" unicode="&#xc4;" horiz-adv-x="583" 
d="M223 732c-20 0 -35 15 -35 35v9c0 21 15 36 35 36h5c20 0 35 -15 35 -36v-9c0 -20 -15 -35 -35 -35h-5zM356 732c-20 0 -35 15 -35 35v9c0 21 15 36 35 36h5c20 0 35 -15 35 -36v-9c0 -20 -15 -35 -35 -35h-5zM439 0l-43 156h-209l-43 -156h-124l206 700h131l206 -700
h-124zM218 269h147l-73 269z" />
    <glyph glyph-name="Adieresis" unicode="&#xe4;" horiz-adv-x="583" 
d="M223 732c-20 0 -35 15 -35 35v9c0 21 15 36 35 36h5c20 0 35 -15 35 -36v-9c0 -20 -15 -35 -35 -35h-5zM356 732c-20 0 -35 15 -35 35v9c0 21 15 36 35 36h5c20 0 35 -15 35 -36v-9c0 -20 -15 -35 -35 -35h-5zM439 0l-43 156h-209l-43 -156h-124l206 700h131l206 -700
h-124zM218 269h147l-73 269z" />
    <glyph glyph-name="Agrave" unicode="&#xc0;" horiz-adv-x="583" 
d="M354 731h-93l-94 92h109zM439 0l-43 156h-209l-43 -156h-124l206 700h131l206 -700h-124zM218 269h147l-73 269z" />
    <glyph glyph-name="Agrave" unicode="&#xe0;" horiz-adv-x="583" 
d="M354 731h-93l-94 92h109zM439 0l-43 156h-209l-43 -156h-124l206 700h131l206 -700h-124zM218 269h147l-73 269z" />
    <glyph glyph-name="Aring" unicode="&#xc5;" horiz-adv-x="583" 
d="M267 719c-17 0 -29 12 -29 28v52c0 15 12 28 29 28h51c16 0 29 -13 29 -28v-52c0 -16 -13 -28 -29 -28h-51zM275 782v-17c0 -6 3 -9 7 -9h19c5 0 8 3 8 9v17c0 5 -3 8 -8 8h-19c-4 0 -7 -3 -7 -8zM439 0l-43 156h-209l-43 -156h-124l206 700h131l206 -700h-124zM218 269
h147l-73 269z" />
    <glyph glyph-name="Aring" unicode="&#xe5;" horiz-adv-x="583" 
d="M267 719c-17 0 -29 12 -29 28v52c0 15 12 28 29 28h51c16 0 29 -13 29 -28v-52c0 -16 -13 -28 -29 -28h-51zM275 782v-17c0 -6 3 -9 7 -9h19c5 0 8 3 8 9v17c0 5 -3 8 -8 8h-19c-4 0 -7 -3 -7 -8zM439 0l-43 156h-209l-43 -156h-124l206 700h131l206 -700h-124zM218 269
h147l-73 269z" />
    <glyph glyph-name="Atilde" unicode="&#xc3;" horiz-adv-x="583" 
d="M232 755l-44 -35l-41 52l56 45c24 21 45 22 76 7l52 -26c10 -5 15 -4 24 2l43 33l42 -52l-58 -46c-23 -19 -46 -19 -72 -6l-53 28c-10 5 -17 5 -25 -2zM439 0l-43 156h-209l-43 -156h-124l206 700h131l206 -700h-124zM218 269h147l-73 269z" />
    <glyph glyph-name="Atilde" unicode="&#xe3;" horiz-adv-x="583" 
d="M232 755l-44 -35l-41 52l56 45c24 21 45 22 76 7l52 -26c10 -5 15 -4 24 2l43 33l42 -52l-58 -46c-23 -19 -46 -19 -72 -6l-53 28c-10 5 -17 5 -25 -2zM439 0l-43 156h-209l-43 -156h-124l206 700h131l206 -700h-124zM218 269h147l-73 269z" />
    <glyph glyph-name="AE" unicode="&#xc6;" horiz-adv-x="835" 
d="M794 587h-281v-179h210v-114h-210v-181h281v-113h-403v175h-193l-54 -175h-124l231 700h543v-113zM233 289h158v298h-66z" />
    <glyph glyph-name="AE" unicode="&#xe6;" horiz-adv-x="835" 
d="M794 587h-281v-179h210v-114h-210v-181h281v-113h-403v175h-193l-54 -175h-124l231 700h543v-113zM233 289h158v298h-66z" />
    <glyph glyph-name="Ccedilla" unicode="&#xc7;" 
d="M424 700c44 0 74 -31 74 -72v-140h-122v79c0 13 -5 20 -19 20h-168c-14 0 -19 -7 -19 -20v-434c0 -13 5 -20 19 -20h168c14 0 19 7 19 20v79h122v-140c0 -40 -30 -72 -74 -72h-120l-15 -23h15c35 0 62 -17 62 -51v-14c0 -39 -21 -64 -73 -64h-49c-27 0 -51 2 -72 12
l25 50c19 -6 34 -6 56 -6h19c17 0 25 4 25 14v5c0 7 -8 10 -21 10h-75v35l21 32h-100c-43 0 -74 32 -74 72v556c0 41 31 72 74 72h302z" />
    <glyph glyph-name="Ccedilla" unicode="&#xe7;" 
d="M424 700c44 0 74 -31 74 -72v-140h-122v79c0 13 -5 20 -19 20h-168c-14 0 -19 -7 -19 -20v-434c0 -13 5 -20 19 -20h168c14 0 19 7 19 20v79h122v-140c0 -40 -30 -72 -74 -72h-120l-15 -23h15c35 0 62 -17 62 -51v-14c0 -39 -21 -64 -73 -64h-49c-27 0 -51 2 -72 12
l25 50c19 -6 34 -6 56 -6h19c17 0 25 4 25 14v5c0 7 -8 10 -21 10h-75v35l21 32h-100c-43 0 -74 32 -74 72v556c0 41 31 72 74 72h302z" />
    <glyph glyph-name="Eth" unicode="&#xd0;" horiz-adv-x="583" 
d="M461 700c43 0 74 -31 74 -72v-556c0 -40 -31 -72 -74 -72h-376v294h-50v114h50v292h376zM413 567c0 13 -6 20 -19 20h-188v-179h102v-114h-102v-181h188c13 0 19 7 19 20v434z" />
    <glyph glyph-name="Eth" unicode="&#xf0;" horiz-adv-x="583" 
d="M461 700c43 0 74 -31 74 -72v-556c0 -40 -31 -72 -74 -72h-376v294h-50v114h50v292h376zM413 567c0 13 -6 20 -19 20h-188v-179h102v-114h-102v-181h188c13 0 19 7 19 20v434z" />
    <glyph glyph-name="Eacute" unicode="&#xc9;" horiz-adv-x="494" 
d="M387 822l-94 -92h-93l78 92h109zM453 587h-281v-179h210v-114h-210v-181h281v-113h-403v700h403v-113z" />
    <glyph glyph-name="Eacute" unicode="&#xe9;" horiz-adv-x="494" 
d="M387 822l-94 -92h-93l78 92h109zM453 587h-281v-179h210v-114h-210v-181h281v-113h-403v700h403v-113z" />
    <glyph glyph-name="Ecircumflex" unicode="&#xca;" horiz-adv-x="494" 
d="M259 780l-42 -50h-105l94 94h105l94 -94h-104zM453 587h-281v-179h210v-114h-210v-181h281v-113h-403v700h403v-113z" />
    <glyph glyph-name="Ecircumflex" unicode="&#xea;" horiz-adv-x="494" 
d="M259 780l-42 -50h-105l94 94h105l94 -94h-104zM453 587h-281v-179h210v-114h-210v-181h281v-113h-403v700h403v-113z" />
    <glyph glyph-name="Edieresis" unicode="&#xcb;" horiz-adv-x="494" 
d="M191 732c-20 0 -35 15 -35 35v9c0 21 15 36 35 36h5c20 0 35 -15 35 -36v-9c0 -20 -15 -35 -35 -35h-5zM324 732c-20 0 -35 15 -35 35v9c0 21 15 36 35 36h5c20 0 35 -15 35 -36v-9c0 -20 -15 -35 -35 -35h-5zM453 587h-281v-179h210v-114h-210v-181h281v-113h-403v700
h403v-113z" />
    <glyph glyph-name="Edieresis" unicode="&#xeb;" horiz-adv-x="494" 
d="M191 732c-20 0 -35 15 -35 35v9c0 21 15 36 35 36h5c20 0 35 -15 35 -36v-9c0 -20 -15 -35 -35 -35h-5zM324 732c-20 0 -35 15 -35 35v9c0 21 15 36 35 36h5c20 0 35 -15 35 -36v-9c0 -20 -15 -35 -35 -35h-5zM453 587h-281v-179h210v-114h-210v-181h281v-113h-403v700
h403v-113z" />
    <glyph glyph-name="Egrave" unicode="&#xc8;" horiz-adv-x="494" 
d="M321 731h-93l-94 92h109zM453 587h-281v-179h210v-114h-210v-181h281v-113h-403v700h403v-113z" />
    <glyph glyph-name="Egrave" unicode="&#xe8;" horiz-adv-x="494" 
d="M321 731h-93l-94 92h109zM453 587h-281v-179h210v-114h-210v-181h281v-113h-403v700h403v-113z" />
    <glyph glyph-name="Iacute" unicode="&#xcd;" horiz-adv-x="228" 
d="M55 730l78 92h109l-94 -92h-93zM53 0v700h122v-700h-122z" />
    <glyph glyph-name="Iacute" unicode="&#xed;" horiz-adv-x="228" 
d="M55 730l78 92h109l-94 -92h-93zM53 0v700h122v-700h-122z" />
    <glyph glyph-name="Icircumflex" unicode="&#xce;" horiz-adv-x="228" 
d="M113 780l-42 -50h-105l94 94h105l94 -94h-104zM53 0v700h122v-700h-122z" />
    <glyph glyph-name="Icircumflex" unicode="&#xee;" horiz-adv-x="228" 
d="M113 780l-42 -50h-105l94 94h105l94 -94h-104zM53 0v700h122v-700h-122z" />
    <glyph glyph-name="Idieresis" unicode="&#xcf;" horiz-adv-x="228" 
d="M46 732c-20 0 -35 15 -35 35v9c0 21 15 36 35 36h5c20 0 35 -15 35 -36v-9c0 -20 -15 -35 -35 -35h-5zM179 732c-20 0 -35 15 -35 35v9c0 21 15 36 35 36h5c20 0 35 -15 35 -36v-9c0 -20 -15 -35 -35 -35h-5zM53 0v700h122v-700h-122z" />
    <glyph glyph-name="Idieresis" unicode="&#xef;" horiz-adv-x="228" 
d="M46 732c-20 0 -35 15 -35 35v9c0 21 15 36 35 36h5c20 0 35 -15 35 -36v-9c0 -20 -15 -35 -35 -35h-5zM179 732c-20 0 -35 15 -35 35v9c0 21 15 36 35 36h5c20 0 35 -15 35 -36v-9c0 -20 -15 -35 -35 -35h-5zM53 0v700h122v-700h-122z" />
    <glyph glyph-name="Igrave" unicode="&#xcc;" horiz-adv-x="228" 
d="M176 731h-93l-94 92h109zM53 0v700h122v-700h-122z" />
    <glyph glyph-name="Igrave" unicode="&#xec;" horiz-adv-x="228" 
d="M176 731h-93l-94 92h109zM53 0v700h122v-700h-122z" />
    <glyph glyph-name="Ntilde" unicode="&#xd1;" horiz-adv-x="579" 
d="M229 755l-44 -35l-41 52l56 45c24 21 45 22 76 7l52 -26c10 -5 15 -4 24 2l43 33l42 -52l-58 -46c-23 -19 -46 -19 -72 -6l-53 28c-10 5 -17 5 -25 -2zM410 700h120v-700h-138l-222 461v-461h-120v700h140l220 -458v458z" />
    <glyph glyph-name="Ntilde" unicode="&#xf1;" horiz-adv-x="579" 
d="M229 755l-44 -35l-41 52l56 45c24 21 45 22 76 7l52 -26c10 -5 15 -4 24 2l43 33l42 -52l-58 -46c-23 -19 -46 -19 -72 -6l-53 28c-10 5 -17 5 -25 -2zM410 700h120v-700h-138l-222 461v-461h-120v700h140l220 -458v458z" />
    <glyph glyph-name="Oacute" unicode="&#xd3;" 
d="M401 822l-94 -92h-93l78 92h109zM424 700c44 0 74 -31 74 -72v-556c0 -40 -30 -72 -74 -72h-302c-43 0 -74 32 -74 72v556c0 41 31 72 74 72h302zM376 567c0 13 -5 20 -19 20h-168c-14 0 -19 -7 -19 -20v-434c0 -13 5 -20 19 -20h168c14 0 19 7 19 20v434z" />
    <glyph glyph-name="Oacute" unicode="&#xf3;" 
d="M401 822l-94 -92h-93l78 92h109zM424 700c44 0 74 -31 74 -72v-556c0 -40 -30 -72 -74 -72h-302c-43 0 -74 32 -74 72v556c0 41 31 72 74 72h302zM376 567c0 13 -5 20 -19 20h-168c-14 0 -19 -7 -19 -20v-434c0 -13 5 -20 19 -20h168c14 0 19 7 19 20v434z" />
    <glyph glyph-name="Ocircumflex" unicode="&#xd4;" 
d="M272 780l-42 -50h-105l94 94h105l94 -94h-104zM424 700c44 0 74 -31 74 -72v-556c0 -40 -30 -72 -74 -72h-302c-43 0 -74 32 -74 72v556c0 41 31 72 74 72h302zM376 567c0 13 -5 20 -19 20h-168c-14 0 -19 -7 -19 -20v-434c0 -13 5 -20 19 -20h168c14 0 19 7 19 20v434z
" />
    <glyph glyph-name="Ocircumflex" unicode="&#xf4;" 
d="M272 780l-42 -50h-105l94 94h105l94 -94h-104zM424 700c44 0 74 -31 74 -72v-556c0 -40 -30 -72 -74 -72h-302c-43 0 -74 32 -74 72v556c0 41 31 72 74 72h302zM376 567c0 13 -5 20 -19 20h-168c-14 0 -19 -7 -19 -20v-434c0 -13 5 -20 19 -20h168c14 0 19 7 19 20v434z
" />
    <glyph glyph-name="Odieresis" unicode="&#xd6;" 
d="M204 732c-20 0 -35 15 -35 35v9c0 21 15 36 35 36h5c20 0 35 -15 35 -36v-9c0 -20 -15 -35 -35 -35h-5zM337 732c-20 0 -35 15 -35 35v9c0 21 15 36 35 36h5c20 0 35 -15 35 -36v-9c0 -20 -15 -35 -35 -35h-5zM424 700c44 0 74 -31 74 -72v-556c0 -40 -30 -72 -74 -72
h-302c-43 0 -74 32 -74 72v556c0 41 31 72 74 72h302zM376 567c0 13 -5 20 -19 20h-168c-14 0 -19 -7 -19 -20v-434c0 -13 5 -20 19 -20h168c14 0 19 7 19 20v434z" />
    <glyph glyph-name="Odieresis" unicode="&#xf6;" 
d="M204 732c-20 0 -35 15 -35 35v9c0 21 15 36 35 36h5c20 0 35 -15 35 -36v-9c0 -20 -15 -35 -35 -35h-5zM337 732c-20 0 -35 15 -35 35v9c0 21 15 36 35 36h5c20 0 35 -15 35 -36v-9c0 -20 -15 -35 -35 -35h-5zM424 700c44 0 74 -31 74 -72v-556c0 -40 -30 -72 -74 -72
h-302c-43 0 -74 32 -74 72v556c0 41 31 72 74 72h302zM376 567c0 13 -5 20 -19 20h-168c-14 0 -19 -7 -19 -20v-434c0 -13 5 -20 19 -20h168c14 0 19 7 19 20v434z" />
    <glyph glyph-name="Ograve" unicode="&#xd2;" 
d="M335 731h-93l-94 92h109zM424 700c44 0 74 -31 74 -72v-556c0 -40 -30 -72 -74 -72h-302c-43 0 -74 32 -74 72v556c0 41 31 72 74 72h302zM376 567c0 13 -5 20 -19 20h-168c-14 0 -19 -7 -19 -20v-434c0 -13 5 -20 19 -20h168c14 0 19 7 19 20v434z" />
    <glyph glyph-name="Ograve" unicode="&#xf2;" 
d="M335 731h-93l-94 92h109zM424 700c44 0 74 -31 74 -72v-556c0 -40 -30 -72 -74 -72h-302c-43 0 -74 32 -74 72v556c0 41 31 72 74 72h302zM376 567c0 13 -5 20 -19 20h-168c-14 0 -19 -7 -19 -20v-434c0 -13 5 -20 19 -20h168c14 0 19 7 19 20v434z" />
    <glyph glyph-name="Oslash" unicode="&#xd8;" horiz-adv-x="561" 
d="M519 700l-20 -40c4 -9 7 -20 7 -32v-556c0 -40 -31 -72 -74 -72h-383l17 34c-6 11 -10 24 -10 38v556c0 41 30 72 74 72h389zM177 254l168 333h-148c-14 0 -20 -7 -20 -20v-313zM384 433l-162 -320h143c13 0 19 7 19 20v300z" />
    <glyph glyph-name="Oslash" unicode="&#xf8;" horiz-adv-x="561" 
d="M519 700l-20 -40c4 -9 7 -20 7 -32v-556c0 -40 -31 -72 -74 -72h-383l17 34c-6 11 -10 24 -10 38v556c0 41 30 72 74 72h389zM177 254l168 333h-148c-14 0 -20 -7 -20 -20v-313zM384 433l-162 -320h143c13 0 19 7 19 20v300z" />
    <glyph glyph-name="Otilde" unicode="&#xd5;" 
d="M213 755l-44 -35l-41 52l56 45c24 21 45 22 76 7l52 -26c10 -5 15 -4 24 2l43 33l42 -52l-58 -46c-23 -19 -46 -19 -72 -6l-53 28c-10 5 -17 5 -25 -2zM424 700c44 0 74 -31 74 -72v-556c0 -40 -30 -72 -74 -72h-302c-43 0 -74 32 -74 72v556c0 41 31 72 74 72h302z
M376 567c0 13 -5 20 -19 20h-168c-14 0 -19 -7 -19 -20v-434c0 -13 5 -20 19 -20h168c14 0 19 7 19 20v434z" />
    <glyph glyph-name="Otilde" unicode="&#xf5;" 
d="M213 755l-44 -35l-41 52l56 45c24 21 45 22 76 7l52 -26c10 -5 15 -4 24 2l43 33l42 -52l-58 -46c-23 -19 -46 -19 -72 -6l-53 28c-10 5 -17 5 -25 -2zM424 700c44 0 74 -31 74 -72v-556c0 -40 -30 -72 -74 -72h-302c-43 0 -74 32 -74 72v556c0 41 31 72 74 72h302z
M376 567c0 13 -5 20 -19 20h-168c-14 0 -19 -7 -19 -20v-434c0 -13 5 -20 19 -20h168c14 0 19 7 19 20v434z" />
    <glyph glyph-name="OE" unicode="&#x152;" horiz-adv-x="821" 
d="M499 587v-179h210v-114h-210v-181h281v-113h-658c-43 0 -74 32 -74 72v556c0 41 31 72 74 72h658v-113h-281zM377 567c0 13 -6 20 -19 20h-169c-14 0 -19 -7 -19 -20v-434c0 -13 5 -20 19 -20h169c13 0 19 7 19 20v434z" />
    <glyph glyph-name="OE" unicode="&#x153;" horiz-adv-x="821" 
d="M499 587v-179h210v-114h-210v-181h281v-113h-658c-43 0 -74 32 -74 72v556c0 41 31 72 74 72h658v-113h-281zM377 567c0 13 -6 20 -19 20h-169c-14 0 -19 -7 -19 -20v-434c0 -13 5 -20 19 -20h169c13 0 19 7 19 20v434z" />
    <glyph glyph-name="Thorn" unicode="&#xde;" horiz-adv-x="522" 
d="M406 593c44 0 74 -32 74 -72v-317c0 -41 -30 -72 -74 -72h-234v-132h-122v700h122v-107h234zM358 460c0 12 -5 19 -19 19h-167v-234h167c14 0 19 7 19 19v196z" />
    <glyph glyph-name="Thorn" unicode="&#xfe;" horiz-adv-x="522" 
d="M406 593c44 0 74 -32 74 -72v-317c0 -41 -30 -72 -74 -72h-234v-132h-122v700h122v-107h234zM358 460c0 12 -5 19 -19 19h-167v-234h167c14 0 19 7 19 19v196z" />
    <glyph glyph-name="uni1E9E" unicode="&#xdf;" horiz-adv-x="552" 
d="M428 419c43 0 74 -32 74 -72v-275c0 -40 -31 -72 -74 -72h-202v113h135c13 0 19 7 19 20v153c0 12 -6 19 -19 19h-109v114l101 168h-162c-14 0 -19 -7 -19 -20v-567h-122v628c0 41 31 72 74 72h361v-113l-101 -168h44z" />
    <glyph glyph-name="uni1E9E" unicode="&#x1e9e;" horiz-adv-x="552" 
d="M428 419c43 0 74 -32 74 -72v-275c0 -40 -31 -72 -74 -72h-202v113h135c13 0 19 7 19 20v153c0 12 -6 19 -19 19h-109v114l101 168h-162c-14 0 -19 -7 -19 -20v-567h-122v628c0 41 31 72 74 72h361v-113l-101 -168h44z" />
    <glyph glyph-name="Uacute" unicode="&#xda;" horiz-adv-x="550" 
d="M403 822l-94 -92h-93l78 92h109zM378 700h122v-628c0 -40 -30 -72 -74 -72h-302c-43 0 -74 32 -74 72v628h122v-567c0 -13 5 -20 19 -20h168c14 0 19 7 19 20v567z" />
    <glyph glyph-name="Uacute" unicode="&#xfa;" horiz-adv-x="550" 
d="M403 822l-94 -92h-93l78 92h109zM378 700h122v-628c0 -40 -30 -72 -74 -72h-302c-43 0 -74 32 -74 72v628h122v-567c0 -13 5 -20 19 -20h168c14 0 19 7 19 20v567z" />
    <glyph glyph-name="Ucircumflex" unicode="&#xdb;" horiz-adv-x="550" 
d="M274 780l-42 -50h-105l94 94h105l94 -94h-104zM378 700h122v-628c0 -40 -30 -72 -74 -72h-302c-43 0 -74 32 -74 72v628h122v-567c0 -13 5 -20 19 -20h168c14 0 19 7 19 20v567z" />
    <glyph glyph-name="Ucircumflex" unicode="&#xfb;" horiz-adv-x="550" 
d="M274 780l-42 -50h-105l94 94h105l94 -94h-104zM378 700h122v-628c0 -40 -30 -72 -74 -72h-302c-43 0 -74 32 -74 72v628h122v-567c0 -13 5 -20 19 -20h168c14 0 19 7 19 20v567z" />
    <glyph glyph-name="Udieresis" unicode="&#xdc;" horiz-adv-x="550" 
d="M206 732c-20 0 -35 15 -35 35v9c0 21 15 36 35 36h5c20 0 35 -15 35 -36v-9c0 -20 -15 -35 -35 -35h-5zM339 732c-20 0 -35 15 -35 35v9c0 21 15 36 35 36h5c20 0 35 -15 35 -36v-9c0 -20 -15 -35 -35 -35h-5zM378 700h122v-628c0 -40 -30 -72 -74 -72h-302
c-43 0 -74 32 -74 72v628h122v-567c0 -13 5 -20 19 -20h168c14 0 19 7 19 20v567z" />
    <glyph glyph-name="Udieresis" unicode="&#xfc;" horiz-adv-x="550" 
d="M206 732c-20 0 -35 15 -35 35v9c0 21 15 36 35 36h5c20 0 35 -15 35 -36v-9c0 -20 -15 -35 -35 -35h-5zM339 732c-20 0 -35 15 -35 35v9c0 21 15 36 35 36h5c20 0 35 -15 35 -36v-9c0 -20 -15 -35 -35 -35h-5zM378 700h122v-628c0 -40 -30 -72 -74 -72h-302
c-43 0 -74 32 -74 72v628h122v-567c0 -13 5 -20 19 -20h168c14 0 19 7 19 20v567z" />
    <glyph glyph-name="Ugrave" unicode="&#xd9;" horiz-adv-x="550" 
d="M337 731h-93l-94 92h109zM378 700h122v-628c0 -40 -30 -72 -74 -72h-302c-43 0 -74 32 -74 72v628h122v-567c0 -13 5 -20 19 -20h168c14 0 19 7 19 20v567z" />
    <glyph glyph-name="Ugrave" unicode="&#xf9;" horiz-adv-x="550" 
d="M337 731h-93l-94 92h109zM378 700h122v-628c0 -40 -30 -72 -74 -72h-302c-43 0 -74 32 -74 72v628h122v-567c0 -13 5 -20 19 -20h168c14 0 19 7 19 20v567z" />
    <glyph glyph-name="Wacute" unicode="&#x1e82;" horiz-adv-x="765" 
d="M511 802l-94 -92h-93l78 92h109zM610 700h135l-119 -700h-161l-82 353l-83 -353h-161l-119 700h135l73 -499l99 411h111l99 -411z" />
    <glyph glyph-name="Wacute" unicode="&#x1e83;" horiz-adv-x="765" 
d="M511 802l-94 -92h-93l78 92h109zM610 700h135l-119 -700h-161l-82 353l-83 -353h-161l-119 700h135l73 -499l99 411h111l99 -411z" />
    <glyph glyph-name="Wcircumflex" unicode="&#x174;" horiz-adv-x="765" 
d="M382 765l-42 -50h-105l94 94h105l94 -94h-104zM610 700h135l-119 -700h-161l-82 353l-83 -353h-161l-119 700h135l73 -499l99 411h111l99 -411z" />
    <glyph glyph-name="Wcircumflex" unicode="&#x175;" horiz-adv-x="765" 
d="M382 765l-42 -50h-105l94 94h105l94 -94h-104zM610 700h135l-119 -700h-161l-82 353l-83 -353h-161l-119 700h135l73 -499l99 411h111l99 -411z" />
    <glyph glyph-name="Wdieresis" unicode="&#x1e84;" horiz-adv-x="765" 
d="M314 712c-20 0 -35 15 -35 35v9c0 21 15 36 35 36h5c20 0 35 -15 35 -36v-9c0 -20 -15 -35 -35 -35h-5zM447 712c-20 0 -35 15 -35 35v9c0 21 15 36 35 36h5c20 0 35 -15 35 -36v-9c0 -20 -15 -35 -35 -35h-5zM610 700h135l-119 -700h-161l-82 353l-83 -353h-161
l-119 700h135l73 -499l99 411h111l99 -411z" />
    <glyph glyph-name="Wdieresis" unicode="&#x1e85;" horiz-adv-x="765" 
d="M314 712c-20 0 -35 15 -35 35v9c0 21 15 36 35 36h5c20 0 35 -15 35 -36v-9c0 -20 -15 -35 -35 -35h-5zM447 712c-20 0 -35 15 -35 35v9c0 21 15 36 35 36h5c20 0 35 -15 35 -36v-9c0 -20 -15 -35 -35 -35h-5zM610 700h135l-119 -700h-161l-82 353l-83 -353h-161
l-119 700h135l73 -499l99 411h111l99 -411z" />
    <glyph glyph-name="Wgrave" unicode="&#x1e80;" horiz-adv-x="765" 
d="M445 711h-93l-94 92h109zM610 700h135l-119 -700h-161l-82 353l-83 -353h-161l-119 700h135l73 -499l99 411h111l99 -411z" />
    <glyph glyph-name="Wgrave" unicode="&#x1e81;" horiz-adv-x="765" 
d="M445 711h-93l-94 92h109zM610 700h135l-119 -700h-161l-82 353l-83 -353h-161l-119 700h135l73 -499l99 411h111l99 -411z" />
    <glyph glyph-name="Yacute" unicode="&#xdd;" horiz-adv-x="582" 
d="M419 822l-94 -92h-93l78 92h109zM565 700l-213 -497v-203h-122v201l-213 499h130l144 -363l144 363h130z" />
    <glyph glyph-name="Yacute" unicode="&#xfd;" horiz-adv-x="582" 
d="M419 822l-94 -92h-93l78 92h109zM565 700l-213 -497v-203h-122v201l-213 499h130l144 -363l144 363h130z" />
    <glyph glyph-name="Ycircumflex" unicode="&#x176;" horiz-adv-x="582" 
d="M290 782l-42 -50h-104l93 94h106l93 -94h-104zM565 700l-213 -497v-203h-122v201l-213 499h130l144 -363l144 363h130z" />
    <glyph glyph-name="Ycircumflex" unicode="&#x177;" horiz-adv-x="582" 
d="M290 782l-42 -50h-104l93 94h106l93 -94h-104zM565 700l-213 -497v-203h-122v201l-213 499h130l144 -363l144 363h130z" />
    <glyph glyph-name="Ydieresis" unicode="&#xff;" horiz-adv-x="582" 
d="M222 732c-20 0 -35 15 -35 35v9c0 21 15 36 35 36h5c20 0 35 -15 35 -36v-9c0 -20 -15 -35 -35 -35h-5zM355 732c-20 0 -35 15 -35 35v9c0 21 15 36 35 36h5c20 0 35 -15 35 -36v-9c0 -20 -15 -35 -35 -35h-5zM565 700l-213 -497v-203h-122v201l-213 499h130l144 -363
l144 363h130z" />
    <glyph glyph-name="Ydieresis" unicode="&#x178;" horiz-adv-x="582" 
d="M222 732c-20 0 -35 15 -35 35v9c0 21 15 36 35 36h5c20 0 35 -15 35 -36v-9c0 -20 -15 -35 -35 -35h-5zM355 732c-20 0 -35 15 -35 35v9c0 21 15 36 35 36h5c20 0 35 -15 35 -36v-9c0 -20 -15 -35 -35 -35h-5zM565 700l-213 -497v-203h-122v201l-213 499h130l144 -363
l144 363h130z" />
    <glyph glyph-name="Ygrave" unicode="&#x1ef2;" horiz-adv-x="582" 
d="M353 731h-93l-94 92h109zM565 700l-213 -497v-203h-122v201l-213 499h130l144 -363l144 363h130z" />
    <glyph glyph-name="Ygrave" unicode="&#x1ef3;" horiz-adv-x="582" 
d="M353 731h-93l-94 92h109zM565 700l-213 -497v-203h-122v201l-213 499h130l144 -363l144 363h130z" />
    <glyph glyph-name="cent" unicode="&#xa2;" horiz-adv-x="449" 
d="M424 408h-122v21c0 13 -5 19 -19 19h-117c-14 0 -19 -6 -19 -19v-137c0 -13 5 -19 19 -19h117c14 0 19 6 19 19v21h122v-82c0 -40 -30 -72 -74 -72h-65v-77h-120v77h-66c-43 0 -74 32 -74 72v259c0 40 31 72 74 72h66v74h120v-74h65c44 0 74 -32 74 -72v-82z" />
    <glyph glyph-name="Euro" unicode="&#x20ac;" horiz-adv-x="591" 
d="M543 547h-122v20c0 13 -5 20 -19 20h-168c-14 0 -19 -7 -19 -20v-110h198v-74h-198v-63h198v-75h-198v-112c0 -13 5 -20 19 -20h168c14 0 19 7 19 20v21h122v-82c0 -40 -30 -72 -74 -72h-302c-43 0 -74 32 -74 72v173h-50v75h50v63h-50v74h50v171c0 41 31 72 74 72h302
c44 0 74 -31 74 -72v-81z" />
    <glyph glyph-name="sterling" unicode="&#xa3;" horiz-adv-x="514" 
d="M208 147h266v-114h-434v114h27c13 0 19 7 19 19v128h-28v114h28v220c0 41 31 72 74 72h257v-113h-190c-14 0 -19 -7 -19 -20v-159h154v-114h-154v-147z" />
    <glyph glyph-name="yen" unicode="&#xa5;" horiz-adv-x="600" 
d="M574 700l-135 -314h89v-97h-130l-29 -67h159v-97h-167v-125h-122v125h-167v97h158l-29 67h-129v97h88l-134 314h130l144 -363l144 363h130z" />
    <glyph glyph-name="degree" unicode="&#xb0;" horiz-adv-x="271" 
d="M80 456c-37 0 -63 25 -63 61v122c0 36 26 61 63 61h112c37 0 62 -25 62 -61v-122c0 -36 -25 -61 -62 -61h-112zM118 539h36c11 0 18 9 18 18v42c0 9 -7 18 -18 18h-36c-11 0 -19 -9 -19 -18v-42c0 -9 8 -18 19 -18z" />
    <glyph glyph-name="uni0308" unicode="&#x308;" horiz-adv-x="0" 
d="M-173 732c-20 0 -35 15 -35 35v9c0 21 15 36 35 36h5c20 0 35 -15 35 -36v-9c0 -20 -15 -35 -35 -35h-5zM-40 732c-20 0 -35 15 -35 35v9c0 21 15 36 35 36h5c20 0 35 -15 35 -36v-9c0 -20 -15 -35 -35 -35h-5z" />
    <glyph glyph-name="uni0307" unicode="&#x307;" horiz-adv-x="0" 
d="M20 732c-20 0 -35 15 -35 35v9c0 21 15 36 35 36h5c20 0 35 -15 35 -36v-9c0 -20 -15 -35 -35 -35h-5z" />
    <glyph glyph-name="gravecomb" unicode="&#x300;" horiz-adv-x="0" 
d="M0 731h-93l-94 92h109z" />
    <glyph glyph-name="acutecomb" unicode="&#x301;" horiz-adv-x="0" 
d="M-190 731l78 92h109l-94 -92h-93z" />
    <glyph glyph-name="uni0302" unicode="&#x302;" horiz-adv-x="0" 
d="M-1 731h-104l-42 50l-42 -50h-105l94 94h105z" />
    <glyph glyph-name="uni030A" unicode="&#x30a;" horiz-adv-x="0" 
d="M-80 719c-17 0 -29 12 -29 28v52c0 15 12 28 29 28h51c16 0 29 -13 29 -28v-52c0 -16 -13 -28 -29 -28h-51zM-65 756h19c5 0 8 3 8 9v17c0 5 -3 8 -8 8h-19c-4 0 -7 -3 -7 -8v-17c0 -6 3 -9 7 -9z" />
    <glyph glyph-name="tildecomb" unicode="&#x303;" horiz-adv-x="0" 
d="M-285 772l56 45c24 21 45 22 76 7l52 -26c10 -5 15 -4 24 2l43 33l42 -52l-58 -46c-23 -19 -46 -19 -72 -6l-53 28c-10 5 -17 5 -25 -2l-44 -35z" />
    <glyph glyph-name="uni0327" unicode="&#x327;" horiz-adv-x="0" 
d="M-182 -90c19 -6 34 -6 56 -6h19c17 0 25 4 25 14v5c0 7 -8 10 -21 10h-75v35l26 39h82l-20 -30h15c35 0 62 -17 62 -51v-14c0 -39 -21 -64 -73 -64h-49c-27 0 -51 2 -72 12z" />
    <glyph glyph-name="VerticalStroke" horiz-adv-x="122" 
d="M0 0v700h122v-700h-122z" />
    <glyph glyph-name="Crossbar" horiz-adv-x="445" 
d="M0 294v114h445v-114h-445z" />
    <glyph glyph-name="Diagonal" horiz-adv-x="300" 
d="M0 0l206 700h94v-58l-176 -642h-124z" />
    <glyph glyph-name="RoundQtr" horiz-adv-x="151" 
d="M0 547v81c0 41 31 72 74 72h77v-113h-10c-14 0 -19 -7 -19 -20v-20h-122z" />
    <glyph glyph-name="VerticalSerif" horiz-adv-x="122" 
d="M0 500v60h122v-60h-122z" />
    <glyph glyph-name="DblRndVert" horiz-adv-x="152" 
d="M30 265v9c0 15 -8 22 -22 22h-8v114h8c14 0 22 7 22 23v10h122v-26c0 -32 -17 -56 -52 -64c35 -7 52 -31 52 -63v-25h-122z" />
    <glyph glyph-name="qdash" horiz-adv-x="153" 
d="M41 -93l-41 111h106l47 -111h-112z" />
    <glyph glyph-name="SpineZ" horiz-adv-x="477" 
d="M0 65v50l352 516h115v-46l-358 -520h-109z" />
    <glyph glyph-name="XQtr" horiz-adv-x="512" 
d="M226 0h-134l163 350h134z" />
    <glyph glyph-name="RndTransition" horiz-adv-x="91" 
d="M0 546v85c0 52 24 69 61 69h30v-113h-61c-14 0 -20 -7 -20 -20v-21h-10z" />
    <glyph glyph-name="MWWedge" horiz-adv-x="240" 
d="M240 88h-75l-165 490v122h79l161 -487v-125z" />
    <glyph glyph-name="RoundTight" horiz-adv-x="151" 
d="M0 547v93c0 38 20 60 62 60h89v-113h-11c-12 0 -18 -7 -18 -19v-21h-122z" />
    </font>
</defs>
</svg>
